<svg xmlns="http://www.w3.org/2000/svg" xmlns:xlink="http://www.w3.org/1999/xlink" width="16" height="16" viewBox="0 0 120.17 184.52" version="1.1" style="font-size: 16px;">
<defs>
<clipPath id="clip1">
  <path d="M 64 48 L 120.171875 48 L 120.171875 87 L 64 87 Z M 64 48 "></path>
</clipPath>
<clipPath id="clip2">
  <path d="M 0 175 L 32 175 L 32 184.519531 L 0 184.519531 Z M 0 175 "></path>
</clipPath>
</defs>
<g id="surface1">
<path style=" stroke:none;fill-rule:nonzero;fill:rgb(75.125122%,22.344971%,23.504639%);fill-opacity:1;" d="M 79.757812 46.925781 L 74.773438 45.441406 L 19.558594 30.5 L 19.558594 104.625 L 75.320312 88.3125 L 79.757812 87.054688 L 79.757812 46.925781 "></path>
<path style=" stroke:none;fill-rule:nonzero;fill:rgb(56.291199%,19.055176%,17.69104%);fill-opacity:1;" d="M 64.738281 48.59375 L 64.71875 86.578125 L 79.757812 87.054688 L 79.757812 46.925781 L 64.738281 48.59375 "></path>
<g clip-path="url(#clip1)" clip-rule="nonzero">
<path style=" stroke:none;fill-rule:nonzero;fill:rgb(86.228943%,23.808289%,25.773621%);fill-opacity:1;" d="M 64.71875 86.578125 L 120.171875 67.398438 L 64.609375 48.546875 Z M 64.71875 86.578125 "></path>
</g>
<path style=" stroke:none;fill-rule:nonzero;fill:rgb(11.308289%,13.648987%,20.950317%);fill-opacity:1;" d="M 9.726562 175.578125 L 21.992188 175.578125 L 21.992188 17.890625 L 9.726562 17.890625 Z M 9.726562 175.578125 "></path>
<path style=" stroke:none;fill-rule:nonzero;fill:rgb(28.164673%,26.734924%,34.729004%);fill-opacity:1;" d="M 15.84375 175.578125 L 9.726562 175.578125 L 9.726562 17.890625 L 15.84375 17.890625 L 11.789062 17.890625 L 11.789062 25.078125 C 13.035156 25.605469 14.40625 25.894531 15.84375 25.898438 L 15.84375 175.578125 "></path>
<path style=" stroke:none;fill-rule:nonzero;fill:rgb(10.205078%,12.159729%,17.353821%);fill-opacity:1;" d="M 15.859375 25.898438 C 15.855469 25.898438 15.847656 25.898438 15.84375 25.898438 L 15.84375 17.890625 L 19.933594 17.890625 L 19.933594 25.078125 C 18.679688 25.605469 17.304688 25.898438 15.859375 25.898438 "></path>
<path style=" stroke:none;fill-rule:nonzero;fill:rgb(22.40448%,21.574402%,26.901245%);fill-opacity:1;" d="M 15.84375 25.898438 C 14.40625 25.894531 13.035156 25.605469 11.789062 25.078125 L 11.789062 17.890625 L 15.84375 17.890625 L 15.84375 25.898438 "></path>
<path style=" stroke:none;fill-rule:nonzero;fill:rgb(78.250122%,79.844666%,79.882812%);fill-opacity:1;" d="M 30.167969 14.308594 C 30.167969 22.210938 23.761719 28.617188 15.859375 28.617188 C 7.957031 28.617188 1.550781 22.210938 1.550781 14.308594 C 1.550781 6.40625 7.957031 0.00390625 15.859375 0.00390625 C 23.761719 0.00390625 30.167969 6.40625 30.167969 14.308594 "></path>
<path style=" stroke:none;fill-rule:nonzero;fill:rgb(84.506226%,87.89978%,86.982727%);fill-opacity:1;" d="M 21.992188 10.980469 C 21.992188 15.511719 18.316406 19.1875 13.789062 19.1875 C 9.257812 19.1875 5.578125 15.511719 5.578125 10.980469 C 5.578125 6.449219 9.257812 2.773438 13.789062 2.773438 C 18.316406 2.773438 21.992188 6.449219 21.992188 10.980469 "></path>
<path style=" stroke:none;fill-rule:nonzero;fill:rgb(91.58783%,93.383789%,92.572021%);fill-opacity:1;" d="M 15.859375 9.316406 C 15.859375 11.191406 14.339844 12.714844 12.464844 12.714844 C 10.585938 12.714844 9.066406 11.191406 9.066406 9.316406 C 9.066406 7.441406 10.585938 5.917969 12.464844 5.917969 C 14.339844 5.917969 15.859375 7.441406 15.859375 9.316406 "></path>
<g clip-path="url(#clip2)" clip-rule="nonzero">
<path style=" stroke:none;fill-rule:nonzero;fill:rgb(11.308289%,13.648987%,20.950317%);fill-opacity:1;" d="M 31.722656 184.519531 L 0 184.519531 L 0 175.273438 L 31.722656 175.273438 L 31.722656 184.519531 "></path>
</g>
</g>
</svg>